<?xml version="1.0" encoding="UTF-8" standalone="no"?>
<svg
   xmlns:dc="http://purl.org/dc/elements/1.1/"
   xmlns:cc="http://creativecommons.org/ns#"
   xmlns:rdf="http://www.w3.org/1999/02/22-rdf-syntax-ns#"
   xmlns:svg="http://www.w3.org/2000/svg"
   xmlns="http://www.w3.org/2000/svg"
   height="100%"
   width="100%"
   version="1.1"
   id="svg2"
   enable-background="new 0 0 64 64"
   viewBox="0 0 64 64">
  <metadata
     id="metadata20">
    <rdf:RDF>
      <cc:Work
         rdf:about="">
        <dc:format>image/svg+xml</dc:format>
        <dc:type
           rdf:resource="http://purl.org/dc/dcmitype/StillImage" />
        <dc:title></dc:title>
      </cc:Work>
    </rdf:RDF>
  </metadata>
  <defs
     id="defs18" />
  <g
     style="display:inline"
     id="layer1">
    <path
       style="fill:#137a08"
       d="m 64,43 c 0,6.075 -3.373,11 -10,11 L 10,54 C 3.373,54 0,49.075 0,43 L 0,21 C 0,28.360029 20.785504,10 10,10 l 44,0 c 6.627,0 10,4.925 10,11 l 0,22"
       id="path3070" />
  </g>
  <g
     style="display:inline"
     id="layer2">
    <g
       id="g3006">
      <path
         d="m 23,9.9980785 -13.0011354,0 c -6.6275788,0 -10.00087343,4.9254295 -10.00087343,11.0009605 l 0,11.000961 L 23,32 23,9.9980785 Z"
         id="path12"
         style="fill:#e6e7e8;fill-opacity:1" />
      <path
         d="m 11.52,13.997 2.247,4.554 5.03,0.739 -3.638,3.548 0.86,5 -4.5,-2.364 -4.5,2.364 0.86,-5 L 4.24,19.29 9.27,18.551 Z"
         id="path14"
         style="fill:#008000" />
    </g>
  </g>
</svg>
